<?xml version="1.0" standalone="no"?><!DOCTYPE svg PUBLIC "-//W3C//DTD SVG 1.1//EN" "http://www.w3.org/Graphics/SVG/1.1/DTD/svg11.dtd"><svg t="1534225155003" class="icon" style="" viewBox="0 0 1024 1024" version="1.1" xmlns="http://www.w3.org/2000/svg" p-id="755" xmlns:xlink="http://www.w3.org/1999/xlink" width="200" height="200"><defs><style type="text/css"></style></defs><path d="M516.672 605.76c11.136 42.624 0.64 89.856-32.64 123.136L348.288 864.64c-49.792 49.792-131.264 49.792-180.992 0l-45.248-45.248c-49.792-49.792-49.792-131.264 0-180.992l135.744-135.744c33.216-33.216 80.512-43.776 123.136-32.64L303.04 547.904 277.568 573.312l-110.336 110.336c-24.96 24.96-24.96 65.536 0 90.496l45.248 45.248c24.96 24.96 65.536 24.96 90.496 0l110.336-110.336 25.472-25.472L516.672 605.76zM891.328 140.608 846.08 95.36c-49.792-49.792-131.264-49.792-180.992 0L529.28 231.104C496.064 264.32 485.568 311.616 496.704 354.24l77.888-77.888L600 250.88l110.336-110.336c24.96-24.96 65.536-24.96 90.496 0l45.248 45.248c24.96 24.96 24.96 65.536 0 90.496l-110.336 110.336-25.472 25.472L632.448 489.984c42.624 11.136 89.856 0.64 123.136-32.64l135.744-135.744C941.12 271.808 941.12 190.336 891.328 140.608zM690.496 296.128c-12.416-12.416-32.832-12.48-45.248 0L574.528 366.848 529.28 412.096 438.784 502.656 393.536 547.904 322.816 618.624C319.744 621.696 317.376 625.28 315.84 629.184c-3.136 7.68-3.136 16.384 0 24.128 1.536 3.84 3.904 7.488 6.976 10.56 3.136 3.136 6.72 5.44 10.56 6.976 7.68 3.136 16.384 3.136 24.128 0 3.84-1.536 7.488-3.904 10.56-6.976l70.72-70.72 45.248-45.248 90.496-90.496 45.248-45.248 70.72-70.72C702.976 328.96 702.976 308.608 690.496 296.128z" p-id="756"></path></svg>